<?xml version="1.0" encoding="UTF-8"?>
<svg id="Warstwa_1" xmlns="http://www.w3.org/2000/svg" version="1.1" viewBox="0 0 384 384">
  <!-- Generator: Adobe Illustrator 30.0.0, SVG Export Plug-In . SVG Version: 2.1.1 Build 123)  -->
  <defs>
    <style>
      .st0 {
        fill: #fff;
      }
    </style>
  </defs>
  <g>
    <path class="st0" d="M383.48,0v384H-.52V0h384ZM58.42,21.89c-11.62,2.82-20.26,11.6-22.18,23.48l-.07,185.57-30.37,102.15c-1.9,6.39-.77,13.37,3.31,18.64,5.42,7.01,14.5,11.17,23.65,12.1h318.19c13.95-1.07,29.37-12.13,28.03-27.35l-31.35-104.13-.05-184.09c-.04-.46-.08-.92-.13-1.38-1.68-14.27-14.14-24.83-28.5-24.83l-260.53-.16Z"/>
    <path d="M58.85,21.89l266.59.16c.3,0,.59.04.88.11,12.27,3.34,20.22,13.21,21.26,25.93,0,.1.01.21.01.31l.05,183.46c0,.32.05.63.14.93l31.11,103.31c.07.24.12.49.14.74,1.05,14.96-14.12,25.83-27.91,26.96-.11,0-.21.01-.32.01H32.96c-.13,0-.26,0-.39-.02-10.34-1.1-20.56-6.33-25.48-15.13-2.53-4.53-2.97-9.94-1.49-14.91l30.43-102.38c.09-.3.13-.61.13-.92l.07-184.8c0-.2.02-.39.05-.59,1.99-11.59,10.41-20.18,21.72-23.08.27-.07.56-.1.84-.1ZM338.58,225.07l.77-173.69c0-.09,0-.19,0-.28-.69-9.8-4.29-17.14-13.87-20.47-.34-.12-.69-.17-1.05-.17-12.83-.03-253.94-.5-263.64-.52-.2,0-.4.02-.6.05-5.68,1.03-11.09,4.73-13.68,9.92-.35.7-2.11,5.09-2.11,5.38v179.77c0,1.79,1.45,3.24,3.24,3.24h287.7c1.79,0,3.24-1.44,3.24-3.23ZM256.21,355.44l92.29.11c.11,0,.22,0,.33-.01,9.86-.85,22.02-7,21.65-18.27,0-.29-.06-.57-.15-.84l-29.35-96.84c-.2-.67-.61-1.25-1.17-1.67h0c-.56-.41-1.23-.64-1.93-.64l-292.13-.62c-1.02,0-1.97.47-2.59,1.28l-.28.37c-.24.31-.41.66-.53,1.03l-29.28,97.48c-.08.26-.13.53-.14.81-.47,10.36,10.63,16.61,19.71,17.8.16.02.32.03.48.03l94.11-.63c1.29,0,2.46-.78,2.96-1.97l12.35-29.02c1.3-2.26,3.92-2.55,6.24-2.74,27.6-2.32,58.4,1.76,86.38.06.32-.02.64,0,.95.09l1.59.39c.97.24,1.78.92,2.19,1.83l13.35,30.05c.52,1.17,1.68,1.93,2.96,1.93ZM143.65,355.56h95.87c2.28,0,3.85-2.29,3.03-4.41l-7.15-18.51c-.48-1.25-1.68-2.07-3.01-2.08l-80.56-.33c-1.3,0-2.47.76-2.99,1.95l-8.16,18.83c-.93,2.14.64,4.53,2.98,4.53Z"/>
    <path class="st0" d="M254.1,355.44l-13.45-30.51c-.55-1.25-1.55-2.26-2.8-2.82l-1.27-.57c-28.05.42-58.19-.05-86.64-.05-2.32,0-6.08.08-7.39,2.34l-13.18,30.98-96.48.65c-9.24-1.12-20.72-7.55-19.92-18.24l29.56-98.44,1.62-2.12,294.81.62,1.72,1.27,29.78,98.28c.71,11.62-11.77,17.91-21.79,18.72l-94.57-.11ZM82.35,247.92c-2.41.61-3.18,2.07-4.11,4.13-6.7,14.82-8.64,36.17-14.96,51.66-.57,3.52-.37,5.64,3.35,6.78l248.39.19c6.38-.58,5.78-3.35,4.61-8.43-3.32-14.41-8.95-33.57-13.8-47.57-.93-2.67-1.24-6.04-4.48-6.75H82.35Z"/>
    <path class="st0" d="M338.57,228.3H44.39V45.29c0-.29,1.76-4.68,2.11-5.38,2.63-5.28,8.19-9.02,13.98-9.97l264.47.52c10.02,3.27,13.72,10.75,14.39,20.79l-.78,177.06ZM61.12,44.42c-.68.68-1.14,1.68-1.56,2.54l.18,167.12,5.21,2.28,256.45-.37c2.26-.73,3.07-3.01,2.98-5.25V50.5c.04-5.39-3.57-8.04-8.64-8.58-13.83-1.48-30.1,1.14-44.2-.03l-207.88.98c-.86.43-1.86.89-2.54,1.56Z"/>
    <polygon class="st0" points="138.71 355.56 149.68 330.22 234.6 330.57 244.25 355.56 138.71 355.56"/>
    <path d="M81.35,247.92h220.37c3.23.72,3.55,4.08,4.48,6.75,4.86,14,10.49,33.16,13.8,47.57,1.17,5.08,1.77,7.85-4.61,8.43H68.06c-3.72-1.14-3.84-3.82-3.27-7.34,6.32-15.48,7.11-36.46,13.82-51.29.93-2.05.34-3.51,2.74-4.13ZM114.62,256.74h-28.44l-2.5,8.98h28.86l2.08-8.98ZM151.05,256.74h-28.44l-1.5,8.98h29.19l.75-8.98ZM187.72,256.74h-28.44l-.75,8.98h29.19v-8.98ZM224.4,256.74h-28.44v8.98h29.19l-.75-8.98ZM263.33,265.72l-1.39-8.98h-28.55l.75,8.98h29.19ZM298.51,256.74h-28.44l1.5,8.98h29.19l-2.25-8.98ZM110.63,274.7h-29.94l-2.25,8.98h30.69l1.5-8.98ZM149.55,274.7h-30.69l-1.5,8.98h31.44l.75-8.98ZM187.72,274.7h-29.94l-.75,8.98h30.69v-8.98ZM226.65,274.7h-29.94v8.98h30.69c0-2.53-.57-5.99-.75-8.98ZM264.82,274.7h-29.94l.75,8.98h30.69l-1.5-8.98ZM305.7,283.69c-.85-3.11-1.67-5.54-2.63-8.98h-29.27l1.5,8.98h30.4ZM106.88,292.67h-31.44l-2.02,8.76,32.05.22,1.41-8.98ZM147.3,292.67h-31.44l-1.38,8.99,31.6-.17M187.72,292.67h-31.44l-.68,8.81c10.79.4,21.33-.37,32.12.18v-8.99ZM228.15,292.67h-32.19v8.98h32.94l-.75-8.98ZM268.57,292.67h-32.19l.75,8.98h32.94c-.23-3.09-.88-5.56-1.5-8.98ZM308.24,292.67h-31.44l1.5,8.98h32.19l-2.25-8.98Z"/>
    <polygon class="st0" points="106.52 292.68 105.1 301.66 73.1 301.85 75.08 292.68 106.52 292.68"/>
    <path class="st0" d="M187.37,292.68v8.99c-10.54,0-21.35,0-32.13-.18l.69-8.81h31.44Z"/>
    <polygon class="st0" points="227.79 292.68 228.53 301.66 195.6 301.66 195.6 292.68 227.79 292.68"/>
    <polygon class="st0" points="307.88 292.68 310.13 301.66 277.94 301.66 276.44 292.68 307.88 292.68"/>
    <polygon class="st0" points="149.19 274.71 148.44 283.7 117 283.7 118.5 274.71 149.19 274.71"/>
    <polygon class="st0" points="146.67 292.67 145.92 301.65 114.48 301.65 115.98 292.67 146.67 292.67"/>
    <polygon class="st0" points="264.46 274.71 265.96 283.7 235.27 283.7 234.52 274.71 264.46 274.71"/>
    <polygon class="st0" points="110.27 274.71 108.77 283.7 78.08 283.7 80.32 274.71 110.27 274.71"/>
    <polygon class="st0" points="187.37 274.71 187.37 283.7 156.67 283.7 157.42 274.71 187.37 274.71"/>
    <path class="st0" d="M274.94,283.7l-1.5-8.98h28.82"/>
    <path class="st0" d="M226.29,274.71c.18,3-.61,6.2.75,8.98h-30.69v-8.98h29.94Z"/>
    <polygon class="st0" points="224.04 256.75 224.79 265.73 195.6 265.73 195.6 256.75 224.04 256.75"/>
    <polygon class="st0" points="150.69 256.75 149.94 265.73 120.75 265.73 122.24 256.75 150.69 256.75"/>
    <polygon class="st0" points="187.37 256.75 187.37 265.73 158.17 265.73 158.92 256.75 187.37 256.75"/>
    <polygon class="st0" points="262.97 265.73 233.77 265.73 233.03 256.75 260.35 256.75 262.97 265.73"/>
    <polygon class="st0" points="114.01 256.75 112.72 264.44 112.31 265.73 83.32 265.73 85.56 256.75 114.01 256.75"/>
    <polygon class="st0" points="298.15 256.75 300.39 265.73 271.2 265.73 269.7 256.75 298.15 256.75"/>
  </g>
  <rect x="56.37" y="37.72" width="271.77" height="180.95" rx="12.99" ry="12.99"/>
  <path class="st0" d="M320.46,53.19v150.69c0,3.46-2.77,6.27-6.2,6.28l-243.49.74c-3.44.01-6.23-2.8-6.23-6.28V53.19c0-3.47,2.78-6.28,6.21-6.28h243.49c3.43,0,6.21,2.81,6.21,6.28Z"/>
  <rect x="304.05" y="246.86" width="9.07" height="64.22" rx="3.82" ry="3.82" transform="translate(-67.66 101.52) rotate(-16.86)"/>
  <rect x="70.18" y="247.19" width="9.07" height="64.22" rx="3.82" ry="3.82" transform="translate(73.25 -9.82) rotate(14.69)"/>
</svg>