<?xml version="1.0" encoding="UTF-8"?>
<svg id="Warstwa_1" xmlns="http://www.w3.org/2000/svg" version="1.1" viewBox="0 0 384 384">
  <!-- Generator: Adobe Illustrator 30.0.0, SVG Export Plug-In . SVG Version: 2.1.1 Build 123)  -->
  <defs>
    <style>
      .st0 {
        fill: #fff;
      }
    </style>
  </defs>
  <path d="M58.85,21.89l266.59.16c.3,0,.59.04.88.11,12.27,3.34,20.22,13.21,21.26,25.93,0,.1.01.21.01.31l.05,183.46c0,.32.05.63.14.93l31.11,103.31c.07.24.12.49.14.74,1.05,14.96-14.12,25.83-27.91,26.96-.11,0-.21.01-.32.01H32.96c-.13,0-.26,0-.39-.02-10.34-1.1-20.56-6.33-25.48-15.13-2.53-4.53-2.97-9.94-1.49-14.91l30.43-102.38c.09-.3.13-.61.13-.92l.07-184.8c0-.2.02-.39.05-.59,1.99-11.59,10.41-20.18,21.72-23.08.27-.07.56-.1.84-.1ZM338.58,225.07l.77-173.69c0-.09,0-.19,0-.28-.69-9.8-4.29-17.14-13.87-20.47-.34-.12-.69-.17-1.05-.17-12.83-.03-253.94-.5-263.64-.52-.2,0-.4.02-.6.05-5.68,1.03-11.09,4.73-13.68,9.92-.35.7-2.11,5.09-2.11,5.38v179.77c0,1.79,1.45,3.24,3.24,3.24h287.7c1.79,0,3.24-1.44,3.24-3.23ZM256.21,355.44l92.29.11c.11,0,.22,0,.33-.01,9.86-.85,22.02-7,21.65-18.27,0-.29-.06-.57-.15-.84l-29.35-96.84c-.2-.67-.61-1.25-1.17-1.67h0c-.56-.41-1.23-.64-1.93-.64l-292.13-.62c-1.02,0-1.97.47-2.59,1.28l-.28.37c-.24.31-.41.66-.53,1.03l-29.28,97.48c-.08.26-.13.53-.14.81-.47,10.36,10.63,16.61,19.71,17.8.16.02.32.03.48.03l94.11-.63c1.29,0,2.46-.78,2.96-1.97l12.35-29.02c1.3-2.26,3.92-2.55,6.24-2.74,27.6-2.32,58.4,1.76,86.38.06.32-.02.64,0,.95.09l1.59.39c.97.24,1.78.92,2.19,1.83l13.35,30.05c.52,1.17,1.68,1.93,2.96,1.93ZM143.65,355.56h95.87c2.28,0,3.85-2.29,3.03-4.41l-7.15-18.51c-.48-1.25-1.68-2.07-3.01-2.08l-80.56-.33c-1.3,0-2.47.76-2.99,1.95l-8.16,18.83c-.93,2.14.64,4.53,2.98,4.53Z"/>
  <path d="M81.35,247.92h220.37c3.23.72,3.55,4.08,4.48,6.75,4.86,14,10.49,33.16,13.8,47.57,1.17,5.08,1.77,7.85-4.61,8.43H68.06c-3.72-1.14-3.84-3.82-3.27-7.34,6.32-15.48,7.11-36.46,13.82-51.29.93-2.05.34-3.51,2.74-4.13ZM114.62,256.74h-28.44l-2.5,8.98h28.86l2.08-8.98ZM151.05,256.74h-28.44l-1.5,8.98h29.19l.75-8.98ZM187.72,256.74h-28.44l-.75,8.98h29.19v-8.98ZM224.4,256.74h-28.44v8.98h29.19l-.75-8.98ZM263.33,265.72l-1.39-8.98h-28.55l.75,8.98h29.19ZM298.51,256.74h-28.44l1.5,8.98h29.19l-2.25-8.98ZM110.63,274.7h-29.94l-2.25,8.98h30.69l1.5-8.98ZM149.55,274.7h-30.69l-1.5,8.98h31.44l.75-8.98ZM187.72,274.7h-29.94l-.75,8.98h30.69v-8.98ZM226.65,274.7h-29.94v8.98h30.69c0-2.53-.57-5.99-.75-8.98ZM264.82,274.7h-29.94l.75,8.98h30.69l-1.5-8.98ZM305.7,283.69c-.85-3.11-1.67-5.54-2.63-8.98h-29.27l1.5,8.98h30.4ZM106.88,292.67h-31.44l-2.02,8.76,32.05.22,1.41-8.98ZM147.3,292.67h-31.44l-1.38,8.99,31.6-.17M187.72,292.67h-31.44l-.68,8.81c10.79.4,21.33-.37,32.12.18v-8.99ZM228.15,292.67h-32.19v8.98h32.94l-.75-8.98ZM268.57,292.67h-32.19l.75,8.98h32.94c-.23-3.09-.88-5.56-1.5-8.98ZM308.24,292.67h-31.44l1.5,8.98h32.19l-2.25-8.98Z"/>
  <rect x="56.37" y="37.72" width="271.77" height="180.95" rx="12.99" ry="12.99"/>
  <path class="st0" d="M320.46,53.19v150.69c0,3.46-2.77,6.27-6.2,6.28l-243.49.74c-3.44.01-6.23-2.8-6.23-6.28V53.19c0-3.47,2.78-6.28,6.21-6.28h243.49c3.43,0,6.21,2.81,6.21,6.28Z"/>
  <rect x="304.05" y="246.86" width="9.07" height="64.22" rx="3.82" ry="3.82" transform="translate(-67.66 101.52) rotate(-16.86)"/>
  <rect x="70.18" y="247.19" width="9.07" height="64.22" rx="3.82" ry="3.82" transform="translate(73.25 -9.82) rotate(14.69)"/>
</svg>