<?xml version="1.0" encoding="UTF-8"?>
<svg id="Warstwa_1" xmlns="http://www.w3.org/2000/svg" version="1.1" viewBox="0 0 384 384">
  <!-- Generator: Adobe Illustrator 30.0.0, SVG Export Plug-In . SVG Version: 2.1.1 Build 123)  -->
  <defs>
    <style>
      .st0, .st1, .st2 {
        fill: #fff;
      }

      .st1 {
        stroke: #fff;
        stroke-width: 11.34px;
      }

      .st1, .st2 {
        stroke-miterlimit: 20;
      }

      .st2 {
        stroke: #000;
        stroke-width: 8.08px;
      }
    </style>
  </defs>
  <g>
    <path d="M70.45,96.74c0,1.82,1.48,3.3,3.3,3.3h54.71c5.16,0,1.47,17.4.59,20.8-13.45,51.91-82,65.43-114.61,22.87C-15.81,104.23,8.25,45.77,57.45,39.51c2.7-.34,13.01-1.74,13.01,2.53v54.71ZM62.22,51.31c0-1.99-1.74-3.55-3.71-3.28C11.05,54.42-8.29,114.88,29.64,147.22c34.45,29.37,86.22,7.89,92.75-35.1.31-2.02-1.22-3.85-3.26-3.85h-50.99c-3.26,0-5.92-2.67-5.92-5.92v-51.04Z"/>
    <path d="M301.08,64.95L43.38,212.92c-4.75,1.6-8.05-.42-6.31-5.56L295.83,58.91c-5.99-1.55-15.15-3.3-18.11-5.4-3.82-2.72-2.17-7.8,3.01-7.51,4.38.24,23.8,4.77,28.03,6.42,2.12.83,3.39,2.24,3.24,4.66l-8.68,28.04c-2.15,4.58-8.56,2.72-8.24-2.2.17-2.66,5.51-16.69,6-17.97Z"/>
    <path d="M65.87,232.8h-30.69v66.62h30.69v-66.62Z"/>
    <path d="M84.37,19.62c3.98-1.14,15.33,1.26,19.67,2.47,26.58,7.38,46.92,33.66,47.11,61.47,0,1.22-.36,2.28-1,3.15-.98,1.33-2.61,2.03-4.26,2.03h-58.81c-2.56,0-4.8-1.76-5.36-4.25-.03-.15-.06-.29-.08-.41-.06-.32-.09-.64-.09-.97,0-4.23,0-41.36,0-59.56-.07-1.55,1.37-3.5,2.82-3.92ZM141.33,73.58c-4.44-22.35-22.67-40.64-45.13-44.46-3.34-.57-6.37,2.05-6.37,5.43v40.04c0,3.04,2.46,5.5,5.5,5.5h40.61c3.44,0,6.08-3.13,5.41-6.51Z"/>
    <path class="st0" d="M318.13,109.29v81.59c-1.7-.48-6.93-1.91-7.84-3.01-2.32-2.78-3.59-22.44-7.5-22.44h-15.35v-56.14h30.69Z"/>
    <path class="st0" d="M224.56,182.64v-38.92h29.57l1.12,1.12v43.42c-1.43,1.18-6.14,3.54-7.81,3.38-5.53-.53-16.17-14.59-22.88-8.99Z"/>
    <path class="st0" d="M200.61,240.28v-26.95l9.68,16.09c-2.61,5.26-2.12,11.19-9.68,10.86Z"/>
    <path class="st0" d="M62.13,47.91v58.01c0,.78,1.84,2.62,2.62,2.62l58.27-.45c-3.94,45.52-58,69.63-93.47,39.39C-9.36,114.31,11.99,51.55,62.13,47.91Z"/>
    <polygon class="st0" points="128.75 198.36 128.75 299.42 99.18 299.42 98.06 298.29 98.06 198.36 128.75 198.36"/>
    <rect class="st0" x="35.18" y="232.8" width="30.69" height="66.62"/>
    <path class="st0" d="M142.22,80.09h-52.4V28.44c27.54,1.23,50.35,24.27,52.4,51.65Z"/>
    <path class="st0" d="M280.46,226.12c48.7-1.83,51.81,70.23,6.48,74.66-52.91,5.17-55.69-72.82-6.48-74.66Z"/>
  </g>
  <g>
    <path class="st0" d="M33.23,227.25h36.4c.35,0,.63.28.63.63v76.21c0,.35-.28.63-.63.63h-36.4c-.35,0-.63-.28-.63-.63v-76.21c0-.35.28-.63.63-.63Z"/>
    <path d="M67.58,229.93v72.11h-32.3v-72.11h32.3M69.64,224.58h-36.4c-1.83,0-3.3,1.48-3.3,3.3v76.21c0,1.83,1.48,3.3,3.3,3.3h36.4c1.83,0,3.3-1.48,3.3-3.3v-76.21c0-1.83-1.48-3.3-3.3-3.3h0Z"/>
  </g>
  <g>
    <rect class="st0" x="93.18" y="192.13" width="40.84" height="112" rx=".79" ry=".79"/>
    <path d="M130.65,195.5v105.26h-34.09v-105.26h34.09M133.23,188.76h-39.26c-2.3,0-4.16,1.86-4.16,4.16v110.42c0,2.3,1.86,4.16,4.16,4.16h39.26c2.3,0,4.16-1.86,4.16-4.16v-110.42c0-2.3-1.86-4.16-4.16-4.16h0Z"/>
  </g>
  <g>
    <rect class="st0" x="161.7" y="157.42" width="39.9" height="146.25" rx=".9" ry=".9"/>
    <path d="M197.77,161.26v138.57h-32.22v-138.57h32.22M200.71,153.58h-38.11c-2.62,0-4.74,2.12-4.74,4.74v144.45c0,2.62,2.12,4.74,4.74,4.74h38.11c2.62,0,4.74-2.12,4.74-4.74v-144.45c0-2.62-2.12-4.74-4.74-4.74h0Z"/>
  </g>
  <g>
    <path class="st0" d="M231.16,123.35h37.1c.55,0,.99.45.99.99v177.97c0,.55-.45,1-1,1h-37.1c-.55,0-1-.45-1-1V124.35c0-.55.45-.99.99-.99Z"/>
    <path d="M265.01,127.6v171.46h-30.59V127.6h30.59M268.26,119.1h-37.1c-2.9,0-5.24,2.35-5.24,5.24v177.97c0,2.9,2.35,5.24,5.24,5.24h37.1c2.9,0,5.24-2.35,5.24-5.24V124.35c0-2.9-2.35-5.24-5.24-5.24h0Z"/>
  </g>
  <g>
    <path class="st0" d="M303.19,95.63h36.35c.59,0,1.07.48,1.07,1.07v205.25c0,.59-.48,1.07-1.07,1.07h-36.35c-.59,0-1.06-.48-1.06-1.06V96.69c0-.59.48-1.06,1.06-1.06Z"/>
    <path d="M336.05,100.18v198.27h-29.37V100.18h29.37M339.54,91.07h-36.35c-3.1,0-5.62,2.52-5.62,5.62v205.25c0,3.1,2.52,5.62,5.62,5.62h36.35c3.1,0,5.62-2.52,5.62-5.62V96.69c0-3.1-2.52-5.62-5.62-5.62h0Z"/>
  </g>
  <circle class="st0" cx="280.16" cy="255.2" r="62.68"/>
  <path class="st1" d="M288.54,165.08l5.57,19.88,15.51,6.3,17.69-9.8,18.64,18.38-9.08,15.87,4.59,17.79,20.44,4.81.04,25.95-19.85,7.19-5.77,15.5,9.79,17.16-18.35,18.54-19.37-9.54-14.41,6.29-5.44,19.83-25.18.1-7.91-20.55-14.8-5.77-17.14,9.79-18.86-18.65,9.1-19.8-6.27-13.66-18.88-5.32-.36-26.67,19.87-5.84,5.45-13.05-8.82-20.15,17.72-17.97,19.22,9.34,14.95-6.42,5.01-19.54,26.88.02h0ZM271.42,208.61c-60.06,5.12-47.19,97.99,12.28,86.28,53.19-10.47,42.26-90.93-12.28-86.28Z"/>
  <path class="st2" d="M288.54,165.08l5.57,19.88,15.51,6.3,17.69-9.8,18.64,18.38-9.08,15.87,4.59,17.79,20.44,4.81.04,25.95-19.85,7.19-5.77,15.5,9.79,17.16-18.35,18.54-19.37-9.54-14.41,6.29-5.44,19.83-25.18.1-7.91-20.55-14.8-5.77-17.14,9.79-18.86-18.65,9.1-19.8-6.27-13.66-18.88-5.32-.36-26.67,19.87-5.84,5.45-13.05-8.82-20.15,17.72-17.97,19.22,9.34,14.95-6.42,5.01-19.54,26.88.02h0ZM271.42,208.61c-60.06,5.12-47.19,97.99,12.28,86.28,53.19-10.47,42.26-90.93-12.28-86.28Z"/>
</svg>