<?xml version="1.0" encoding="UTF-8"?>
<svg id="Warstwa_1" xmlns="http://www.w3.org/2000/svg" version="1.1" viewBox="0 0 399.04 399.04">
  <!-- Generator: Adobe Illustrator 30.0.0, SVG Export Plug-In . SVG Version: 2.1.1 Build 123)  -->
  <defs>
    <style>
      .st0 {
        fill: #fff;
      }
    </style>
  </defs>
  <g>
    <path class="st0" d="M43.99,279.4c-4.73.58-22.71,17.81-24.31,22.12-4.17,11.24,6.26,19.87,16.5,14.27,1.66-.91,18.59-17.99,19.35-19.56,4.13-8.65-1.91-18.02-11.54-16.83ZM106.8,343.05c-3.98.62-22.68,18.5-23.92,22.47-3.65,11.67,7.23,19.56,17.63,13.15,2.54-1.57,17.17-16.51,18.35-19.06,4.26-9.16-2.02-18.14-12.06-16.56Z"/>
    <path d="M43.99,279.4c9.63-1.19,15.68,8.18,11.54,16.83-.75,1.57-17.69,18.66-19.35,19.56-10.24,5.6-20.67-3.03-16.5-14.27,1.6-4.31,19.58-21.54,24.31-22.12Z"/>
    <path d="M106.8,343.05c10.05-1.58,16.32,7.4,12.06,16.56-1.19,2.55-15.81,17.49-18.35,19.06-10.4,6.41-21.28-1.49-17.63-13.15,1.24-3.97,19.94-21.84,23.92-22.47Z"/>
    <path class="st0" d="M258.81,276.24v12.35c0,4.08-3.99,16.25-5.62,20.57-7.56,19.92-24.89,40.38-43.38,50.9l-1.06-1.05c6.14-15.3,5.16-33.52-2.93-47.98l52.99-34.79Z"/>
    <path class="st0" d="M123.44,140.76l-34.76,53.04c-14.5-8.18-32.59-9.3-47.94-2.93l-1.05-1.06c10.53-21.08,47.8-49.05,71.41-49.05h12.34Z"/>
    <path class="st0" d="M365.01,85.36l-50.85-50.89c6.65-1.41,52.04-6.06,54.27-3.05,2.88,3.9-2.44,46.39-3.42,53.94Z"/>
    <g>
      <path d="M274.4,78.82c62-1.7,60.55,95.7-3.98,89.62-53.62-5.06-51.61-88.1,3.98-89.62ZM274.38,101.26c-25.97,1.58-28.16,40.11-3.65,44.41,34.92,6.13,35.9-46.38,3.65-44.41Z"/>
      <path class="st0" d="M274.38,101.26c32.25-1.97,31.27,50.54-3.65,44.41-24.51-4.3-22.32-42.83,3.65-44.41Z"/>
    </g>
    <g>
      <path d="M391.19,29.97c.53,7.34.35,17.28,0,24.7-3.42,73.41-35.75,134.44-87.86,184.16-3.1,2.95-22.69,18.78-23.22,20.23-.49,1.36,2.06,7.18,1.16,28.81-1.54,37-54.56,118.98-96.73,93.01-15.24-9.38-4.03-16.58,1.09-25.55,5.56-9.75,6.07-21.42,1.5-31.69-1.79-4.03-28.16-33.16-30.42-33.16-1.06,0-11.34,11.79-15.84,14.07-29.98,15.18-61.23-16.59-45.44-46.23,2.25-4.22,13.78-14.36,13.77-15.39,0-2.18-28.22-27.97-31.63-29.7-10.43-5.3-22.46-5.06-32.68.5-9.51,5.17-17.45,17.12-26.55.4-23.3-42.81,46.22-93.23,93.47-95.85,4.96-.28,27.43,1.65,28.78,1.16,1.45-.52,17.26-20.14,20.21-23.24C214.68,39.64,286.83,3.81,366.91,8.24c19.5,1.08,22.82,1.42,24.28,21.73ZM365.01,85.36c.98-7.55,6.29-50.03,3.42-53.94-2.22-3.02-47.62,1.64-54.27,3.05l50.85,50.89ZM286.32,41.33c-8.97.37-40.7,16.27-49.7,21.45-43.36,24.97-84.44,73.34-111.71,115-2.9,4.43-17.03,26.28-17.63,29.59-.27,1.54-.26,1.3.39,2.64.53,1.09,16.32,16.9,17.52,16.76,3.55-.43,38.23-42.69,51.58-47.23,29.23-9.94,55.18,19.27,41.76,47.04-4.86,10.05-45.29,44.6-45.68,47.89l17.68,18.12c71.3-40.11,146.54-98.82,167.38-181.75l-68.78-68.95c-.87-.91-1.75-.61-2.81-.57ZM123.44,140.76h-12.34c-23.61,0-60.88,27.97-71.41,49.05l1.05,1.06c15.36-6.37,33.44-5.24,47.94,2.93l34.76-53.04ZM196.47,203.15c-5.19-5.2-11.38-3.36-16.58.46-7.95,5.84-58.2,55.82-63.17,63.28-8.44,12.66,3.76,25.03,17.59,14.61,8.54-6.43,57.13-54.58,62.43-62.53,3.36-5.04,4.42-11.14-.26-15.82ZM258.81,276.24l-52.99,34.79c8.09,14.47,9.07,32.68,2.93,47.98l1.06,1.05c18.49-10.52,35.81-30.99,43.38-50.9,1.64-4.31,5.62-16.49,5.62-20.57v-12.35Z"/>
      <path class="st0" d="M286.32,41.33c1.06-.04,1.94-.34,2.81.57l68.78,68.95c-20.84,82.94-96.08,141.65-167.38,181.75l-17.68-18.12c.4-3.29,40.83-37.84,45.68-47.89,13.42-27.76-12.53-56.98-41.76-47.04-13.36,4.54-48.03,46.8-51.58,47.23-1.2.15-17-15.66-17.52-16.76-.65-1.34-.66-1.11-.39-2.64.59-3.31,14.72-25.16,17.63-29.59,27.26-41.66,68.35-90.03,111.71-115,9-5.18,40.73-21.08,49.7-21.45ZM274.4,78.82c-55.59,1.52-57.59,84.56-3.98,89.62,64.53,6.09,65.98-91.31,3.98-89.62Z"/>
      <path class="st0" d="M196.47,203.15c4.68,4.68,3.62,10.78.26,15.82-5.3,7.95-53.89,56.09-62.43,62.53-13.83,10.42-26.02-1.95-17.59-14.61,4.97-7.46,55.22-57.44,63.17-63.28,5.2-3.82,11.39-5.66,16.58-.46Z"/>
    </g>
  </g>
  <rect x="38.86" y="294.38" width="24.18" height="106.01" rx="12.09" ry="12.09" transform="translate(264.7 68.85) rotate(45.85)"/>
  <rect class="st0" x="142.82" y="181.45" width="27.93" height="122.44" rx="13.96" ry="13.96" transform="translate(221.69 -38.85) rotate(45.85)"/>
</svg>